<?xml version="1.0" encoding="UTF-8"?>
<svg viewBox="0 0 238.94061 289.68378" xmlns="http://www.w3.org/2000/svg" xmlns:xlink="http://www.w3.org/1999/xlink">
 <defs>
  <linearGradient id="b">
   <stop stop-color="#babdb6" offset="0"/>
   <stop stop-color="#eeeeec" offset="1"/>
  </linearGradient>
  <linearGradient id="a">
   <stop stop-color="#eeeeec" offset="0"/>
   <stop stop-color="#eeeeec" stop-opacity="0" offset="1"/>
  </linearGradient>
  <linearGradient id="q" x1="-98.063" x2="-138.06" y1="666.46" y2="619.94" gradientUnits="userSpaceOnUse">
   <stop stop-color="#b1d28f" offset="0"/>
   <stop stop-color="#fff" offset="1"/>
  </linearGradient>
  <linearGradient id="p" x1="-46" x2="-3.0313" y1="756.36" y2="1117.7" gradientUnits="userSpaceOnUse">
   <stop stop-color="#77b753" offset="0"/>
   <stop stop-color="#00892c" offset="1"/>
  </linearGradient>
  <linearGradient id="o" x1="-122" x2="-96.043" y1="760.36" y2="1117.7" gradientUnits="userSpaceOnUse">
   <stop stop-color="#00892c" offset="0"/>
   <stop stop-color="#006e29" offset="1"/>
  </linearGradient>
  <linearGradient id="n" x1="-239.49" x2="-285.49" y1="612.99" y2="521.39" gradientUnits="userSpaceOnUse">
   <stop stop-color="#f29b68" offset="0"/>
   <stop stop-color="#fff" offset="1"/>
  </linearGradient>
  <linearGradient id="m" x1="-194" x2="-192.39" y1="650.36" y2="1136.4" gradientUnits="userSpaceOnUse">
   <stop stop-color="#eb7331" offset="0"/>
   <stop stop-color="#cf4913" offset="1"/>
  </linearGradient>
  <linearGradient id="l" x1="-282" x2="-286" y1="688.36" y2="1118.4" gradientUnits="userSpaceOnUse">
   <stop stop-color="#cf4913" offset="0"/>
   <stop stop-color="#ac4311" offset="1"/>
  </linearGradient>
  <linearGradient id="k" x1="-416.63" x2="-513.1" y1="481.9" y2="387.41" gradientUnits="userSpaceOnUse">
   <stop stop-color="#6193cf" offset="0"/>
   <stop stop-color="#fff" offset="1"/>
  </linearGradient>
  <linearGradient id="j" x1="-356" x2="-413.19" y1="594.42" y2="1188.4" gradientUnits="userSpaceOnUse">
   <stop stop-color="#2c72c7" offset="0"/>
   <stop stop-color="#0057ae" offset="1"/>
  </linearGradient>
  <linearGradient id="i" x2="0" y1="676.42" y2="1208.4" gradientUnits="userSpaceOnUse">
   <stop stop-color="#0057ae" offset="0"/>
   <stop stop-color="#00438a" offset="1"/>
  </linearGradient>
  <linearGradient id="t" x1="-77.641" x2="-310" y1="1111.2" y2="969.34" gradientUnits="userSpaceOnUse" xlink:href="#b"/>
  <linearGradient id="s" x1="-227.64" x2="-460" y1="1183.2" y2="1041.3" gradientUnits="userSpaceOnUse" xlink:href="#b"/>
  <linearGradient id="r" x1="-401.64" x2="-634" y1="1263.2" y2="1121.4" gradientUnits="userSpaceOnUse" xlink:href="#b"/>
  <linearGradient id="h" x1="-417.19" x2="-415.78" y1="509.3" y2="1015.6" gradientTransform="matrix(.26531 0 0 1 -302.55 6.0606)" gradientUnits="userSpaceOnUse" xlink:href="#a"/>
  <linearGradient id="g" x1="-417.19" x2="-415.78" y1="509.3" y2="1015.6" gradientTransform="matrix(.26531 0 0 .70418 -129.55 277.62)" gradientUnits="userSpaceOnUse" xlink:href="#a"/>
  <linearGradient id="f" x1="-417.19" x2="-415.78" y1="509.3" y2="1015.6" gradientTransform="matrix(.26531 0 0 .49399 14.449 478.54)" gradientUnits="userSpaceOnUse" xlink:href="#a"/>
  <linearGradient id="e" x1="-417.19" x2="-415.78" y1="509.3" y2="1015.6" gradientTransform="matrix(.26531 0 0 .12975 -502.19 -440.05)" gradientUnits="userSpaceOnUse" xlink:href="#a"/>
  <linearGradient id="d" x1="-417.19" x2="-415.78" y1="509.3" y2="1015.6" gradientTransform="matrix(.26531 0 0 .12975 -350.69 -530.78)" gradientUnits="userSpaceOnUse" xlink:href="#a"/>
  <linearGradient id="c" x1="-417.19" x2="-415.78" y1="509.3" y2="1015.6" gradientTransform="matrix(.26531 0 0 .12975 -161.62 -635.97)" gradientUnits="userSpaceOnUse" xlink:href="#a"/>
 </defs>
 <g transform="matrix(.33 0 0 .33 239.94 -127.85)">
  <path d="m-268.09 969.34-114.9 20.642-20.095 53.202 305.48 73.357 89.929-43.343-260.41-103.86z" fill="url(#t)" fill-rule="evenodd"/>
  <path d="m-418.09 1041.3-114.9 20.642-20.095 53.202 311.91 68 92.071-41.201-268.98-100.64z" fill="url(#s)" fill-rule="evenodd"/>
  <path d="m-592.09 1121.4-114.9 20.642-20.095 53.202 311.91 68 91-46.557-267.91-95.286z" fill="url(#r)" fill-rule="evenodd"/>
  <path d="m-100.08 619.94 97.053 49.195v404.75l-97.053-49.195z" fill="#e9e9ff" fill-rule="evenodd"/>
  <path d="m-193.1 663.79v404.75l93.012-43.848v-404.75z" fill="#353564" fill-rule="evenodd"/>
  <path d="m-193.1 1068.5 97.053 49.195 93.012-43.848-97.053-49.195z" fill="#afafde" fill-rule="evenodd"/>
  <path d="m-193.1 663.79 97.053 49.195 93.012-43.848-97.053-49.195z" fill="url(#q)" fill-rule="evenodd"/>
  <path d="m-96.043 712.99v404.75l93.012-43.848v-404.75z" fill="url(#p)" fill-rule="evenodd"/>
  <path d="m-193.1 663.79 97.053 49.195v404.75l-97.053-49.195z" fill="url(#o)" fill-rule="evenodd"/>
  <path d="m-240.08 521.39 94.195 47.747v571.87l-94.195-47.747z" fill="#e9e9ff" fill-rule="evenodd"/>
  <path d="m-333.1 565.24v571.87l93.012-43.848v-571.87z" fill="#353564" fill-rule="evenodd"/>
  <path d="m-333.1 1137.1 94.195 47.747 93.012-43.848-94.195-47.747z" fill="#afafde" fill-rule="evenodd"/>
  <path d="m-333.1 565.24 94.195 47.747 93.012-43.848-94.195-47.747z" fill="url(#n)" fill-rule="evenodd"/>
  <path d="m-238.9 612.99v571.87l93.012-43.848v-571.87z" fill="url(#m)" fill-rule="evenodd"/>
  <path d="m-333.1 565.24 94.195 47.747v571.87l-94.195-47.747z" fill="url(#l)" fill-rule="evenodd"/>
  <path d="m-420.08 387.41 99.91 50.643v783.34l-99.91-50.643z" fill="#e9e9ff" fill-rule="evenodd"/>
  <path d="m-513.1 431.26v783.34l93.012-43.848v-783.34z" fill="#353564" fill-rule="evenodd"/>
  <path d="m-513.1 1214.6 99.91 50.643 93.012-43.848-99.91-50.643z" fill="#afafde" fill-rule="evenodd"/>
  <path d="m-513.1 431.26 99.91 50.643 93.012-43.848-99.91-50.643z" fill="url(#k)" fill-rule="evenodd"/>
  <path d="m-413.19 481.9v783.34l93.012-43.848v-783.34z" fill="url(#j)" fill-rule="evenodd"/>
  <path d="m-513.1 431.26 99.91 50.643v783.34l-99.91-50.643z" fill="url(#i)" fill-rule="evenodd"/>
  <path d="m-414.36 481.43h3v770.74h-3z" fill="url(#h)" opacity=".78195"/>
  <path d="m-241.36 612.37h3v542.74h-3z" fill="url(#g)" opacity=".78195"/>
  <path d="m-97.361 713.37h3v380.74h-3z" fill="url(#f)" opacity=".78195"/>
  <path transform="matrix(-.40674,-.91355,.91355,-.40674,0,0)" d="m-614-378.38h3v100h-3z" fill="url(#e)" opacity=".78195"/>
  <path transform="matrix(-.40674,-.91355,.91355,-.40674,0,0)" d="m-462.5-469.1h3v100h-3z" fill="url(#d)" opacity=".78195"/>
  <path transform="matrix(-.40674,-.91355,.91355,-.40674,0,0)" d="m-273.43-574.29h3v100h-3z" fill="url(#c)" opacity=".78195"/>
 </g>
</svg>
